<?xml version="1.0" encoding="UTF-8" standalone="no" ?>
<!DOCTYPE svg PUBLIC "-//W3C//DTD SVG 1.1//EN" "http://www.w3.org/Graphics/SVG/1.1/DTD/svg11.dtd">
<svg xmlns="http://www.w3.org/2000/svg" xmlns:xlink="http://www.w3.org/1999/xlink" version="1.1" width="1080" height="1080" viewBox="0 0 1080 1080" xml:space="preserve">
<desc>Created with Fabric.js 5.2.4</desc>
<defs>
</defs>
<rect x="0" y="0" width="100%" height="100%" fill="transparent"></rect>
<g transform="matrix(1 0 0 1 540 540)" id="c575b96c-1b8a-425d-8d35-0af27e2fd0e0"  >
<rect style="stroke: none; stroke-width: 1; stroke-dasharray: none; stroke-linecap: butt; stroke-dashoffset: 0; stroke-linejoin: miter; stroke-miterlimit: 4; fill: rgb(255,255,255); fill-rule: nonzero; opacity: 1; visibility: hidden;" vector-effect="non-scaling-stroke"  x="-540" y="-540" rx="0" ry="0" width="1080" height="1080" />
</g>
<g transform="matrix(1 0 0 1 540 540)" id="cfdb0d1e-3c87-4e67-a34b-df124d9548bc"  >
</g>
<g transform="matrix(20.15 0 0 20.15 518.32 540)"  >
<g style="" vector-effect="non-scaling-stroke"   >
		<g transform="matrix(1 0 0 1 18 4.5)"  >
<path style="stroke: rgb(0,0,0); stroke-width: 2; stroke-dasharray: none; stroke-linecap: butt; stroke-dashoffset: 0; stroke-linejoin: miter; stroke-miterlimit: 10; fill: rgb(255,255,255); fill-rule: nonzero; opacity: 1;" vector-effect="non-scaling-stroke"  transform=" translate(-47, -39.5)" d="M 42.8 45 L 40.941 45 C 40.40302711302471 44.98099643194818 39.982015003218024 44.53000790199585 40 43.992 L 40 35.008 C 39.982015003218024 34.46999209800415 40.40302711302471 34.01900356805182 40.941 34 L 53.632 34 C 53.73405953572923 34.00362626609641 53.830417727081624 34.04796733371487 53.89956140601383 34.12312350646727 C 53.96870508494604 34.198279679219674 54.00487652462663 34.297992558376194 54 34.4 L 54 43 C 54.03541062790344 44.067349170015575 53.20025989780286 44.96199376573125 52.133 45 L 49.333000000000006 45" stroke-linecap="round" />
</g>
		<g transform="matrix(1 0 0 1 -4 -6.5)"  >
<path style="stroke: rgb(0,0,0); stroke-width: 2; stroke-dasharray: none; stroke-linecap: butt; stroke-dashoffset: 0; stroke-linejoin: miter; stroke-miterlimit: 10; fill: rgb(255,255,255); fill-rule: nonzero; opacity: 1;" vector-effect="non-scaling-stroke"  transform=" translate(-25, -28.5)" d="M 12 20 L 38 20 C 39.10456949966159 20 40 20.895430500338414 40 22 L 40 37 L 10 37 L 10 22 C 10 20.895430500338414 10.895430500338414 20 12 20 Z" stroke-linecap="round" />
</g>
		<g transform="matrix(1 0 0 1 -17.5 -7)"  >
<line style="stroke: rgb(0,0,0); stroke-width: 2; stroke-dasharray: none; stroke-linecap: round; stroke-dashoffset: 0; stroke-linejoin: round; stroke-miterlimit: 4; fill: rgb(255,255,255); fill-rule: nonzero; opacity: 1;" vector-effect="non-scaling-stroke"  x1="-7.5" y1="0" x2="7.5" y2="0" />
</g>
		<g transform="matrix(1 0 0 1 -16.5 -4)"  >
<line style="stroke: rgb(0,0,0); stroke-width: 2; stroke-dasharray: none; stroke-linecap: round; stroke-dashoffset: 0; stroke-linejoin: round; stroke-miterlimit: 4; fill: rgb(255,255,255); fill-rule: nonzero; opacity: 1;" vector-effect="non-scaling-stroke"  x1="-7.5" y1="0" x2="7.5" y2="0" />
</g>
		<g transform="matrix(1 0 0 1 -13 -1)"  >
<line style="stroke: rgb(0,0,0); stroke-width: 2; stroke-dasharray: none; stroke-linecap: round; stroke-dashoffset: 0; stroke-linejoin: round; stroke-miterlimit: 4; fill: rgb(255,255,255); fill-rule: nonzero; opacity: 1;" vector-effect="non-scaling-stroke"  x1="-8" y1="0" x2="8" y2="0" />
</g>
		<g transform="matrix(1 0 0 1 -17.5 6)"  >
<line style="stroke: rgb(0,0,0); stroke-width: 2; stroke-dasharray: none; stroke-linecap: round; stroke-dashoffset: 0; stroke-linejoin: round; stroke-miterlimit: 4; fill: rgb(255,255,255); fill-rule: nonzero; opacity: 1;" vector-effect="non-scaling-stroke"  x1="-1.5" y1="0" x2="1.5" y2="0" />
</g>
		<g transform="matrix(1 0 0 1 6.5 6)"  >
<line style="stroke: rgb(0,0,0); stroke-width: 2; stroke-dasharray: none; stroke-linecap: round; stroke-dashoffset: 0; stroke-linejoin: round; stroke-miterlimit: 4; fill: rgb(255,255,255); fill-rule: nonzero; opacity: 1;" vector-effect="non-scaling-stroke"  x1="4.5" y1="0" x2="-4.5" y2="0" />
</g>
		<g transform="matrix(1 0 0 1 14.5 2)"  >
<line style="stroke: rgb(0,0,0); stroke-width: 2; stroke-dasharray: none; stroke-linecap: round; stroke-dashoffset: 0; stroke-linejoin: round; stroke-miterlimit: 4; fill: rgb(255,255,255); fill-rule: nonzero; opacity: 1;" vector-effect="non-scaling-stroke"  x1="-0.5" y1="0" x2="0.5" y2="0" />
</g>
		<g transform="matrix(1 0 0 1 17.5 11.5)"  >
<circle style="stroke: rgb(0,0,0); stroke-width: 2; stroke-dasharray: none; stroke-linecap: butt; stroke-dashoffset: 0; stroke-linejoin: miter; stroke-miterlimit: 10; fill: rgb(255,255,255); fill-rule: nonzero; opacity: 1;" vector-effect="non-scaling-stroke"  cx="0" cy="0" r="3.5" />
</g>
		<g transform="matrix(1 0 0 1 18 -4.5)"  >
<path style="stroke: rgb(0,0,0); stroke-width: 2; stroke-dasharray: none; stroke-linecap: butt; stroke-dashoffset: 0; stroke-linejoin: miter; stroke-miterlimit: 10; fill: rgb(255,255,255); fill-rule: nonzero; opacity: 1;" vector-effect="non-scaling-stroke"  transform=" translate(-47, -30.5)" d="M 53.982 33.688 C 54.00988355400687 33.76073913396333 53.999052949613635 33.842648636785455 53.95322212811512 33.9056407791094 C 53.90739130661661 33.96863292143335 53.83279004839334 34.004145185731694 53.755 34 L 40.355000000000004 34 C 40.15861584116108 33.99889979139292 39.99999691815906 33.83938724065568 40 33.643 L 40 27.359 C 40.000551201774826 27.160568126089974 40.161567360531954 26.999999234440505 40.36 27 L 50.648 27 C 50.9169681872452 27.000156324777983 51.160333293501274 27.159521216939215 51.268 27.406 Z" stroke-linecap="round" />
</g>
		<g transform="matrix(1 0 0 1 -11.5 11.5)"  >
<circle style="stroke: rgb(0,0,0); stroke-width: 2; stroke-dasharray: none; stroke-linecap: butt; stroke-dashoffset: 0; stroke-linejoin: miter; stroke-miterlimit: 10; fill: rgb(255,255,255); fill-rule: nonzero; opacity: 1;" vector-effect="non-scaling-stroke"  cx="0" cy="0" r="3.5" />
</g>
		<g transform="matrix(1 0 0 1 -4 6)"  >
<path style="stroke: rgb(0,0,0); stroke-width: 2; stroke-dasharray: none; stroke-linecap: butt; stroke-dashoffset: 0; stroke-linejoin: miter; stroke-miterlimit: 10; fill: rgb(255,255,255); fill-rule: nonzero; opacity: 1;" vector-effect="non-scaling-stroke"  transform=" translate(-25, -41)" d="M 14 45 L 12 45 C 10.895430500338414 45 10 44.10456949966159 10 43 L 10 37 L 40 37 L 40 45 L 21 45" stroke-linecap="round" />
</g>
		<g transform="matrix(1 0 0 1 23 6)"  >
<line style="stroke: rgb(0,0,0); stroke-width: 2; stroke-dasharray: none; stroke-linecap: round; stroke-dashoffset: 0; stroke-linejoin: round; stroke-miterlimit: 4; fill: rgb(255,255,255); fill-rule: nonzero; opacity: 1;" vector-effect="non-scaling-stroke"  x1="-2" y1="0" x2="2" y2="0" />
</g>
</g>
</g>
</svg>