<?xml version="1.0" encoding="UTF-8" standalone="no" ?>
<!DOCTYPE svg PUBLIC "-//W3C//DTD SVG 1.1//EN" "http://www.w3.org/Graphics/SVG/1.1/DTD/svg11.dtd">
<svg xmlns="http://www.w3.org/2000/svg" xmlns:xlink="http://www.w3.org/1999/xlink" version="1.1" width="1080" height="1080" viewBox="0 0 1080 1080" xml:space="preserve">
<desc>Created with Fabric.js 5.2.4</desc>
<defs>
</defs>
<g transform="matrix(1 0 0 1 540 540)" id="c0bc818a-a1af-4160-876c-0ce60d880cda"  >
<rect style="stroke: none; stroke-width: 1; stroke-dasharray: none; stroke-linecap: butt; stroke-dashoffset: 0; stroke-linejoin: miter; stroke-miterlimit: 4; fill: rgb(255,255,255); fill-rule: nonzero; opacity: 1; visibility: hidden;" vector-effect="non-scaling-stroke"  x="-540" y="-540" rx="0" ry="0" width="1080" height="1080" />
</g>
<g transform="matrix(1 0 0 1 540 540)" id="ea4cd3b8-97d0-4ac4-83a1-e7ad6bd272d6"  >
</g>
<g transform="matrix(54 0 0 54 540 540)"  >
<path style="stroke: none; stroke-width: 1; stroke-dasharray: none; stroke-linecap: butt; stroke-dashoffset: 0; stroke-linejoin: miter; stroke-miterlimit: 4; fill: rgb(0,0,0); fill-rule: evenodd; opacity: 1;"  transform=" translate(-10, -10)" d="M 17 10 C 17 10.414213562373096 16.664213562373096 10.75 16.25 10.75 L 5.612 10.75 L 9.77 14.71 C 9.972415309250659 14.893607194910874 10.058940211652988 15.172780479712426 9.995841424330106 15.438679149284994 C 9.932742637007223 15.704577818857562 9.73000898038249 15.915108923814014 9.466679801484432 15.988193142240117 C 9.203350622586374 16.06127736066622 8.921112108928936 15.985345133706513 8.73 15.790000000000001 L 3.2300000000000004 10.540000000000001 C 3.083336095842581 10.398637575762178 3.0004805471869247 10.203699866885305 3.0004805471869247 10 C 3.0004805471869247 9.796300133114697 3.083336095842581 9.601362424237823 3.2300000000000004 9.46 L 8.73 4.210000000000001 C 8.921112108928934 4.014654866293489 9.203350622586374 3.9387226393337817 9.466679801484432 4.011806857759884 C 9.73000898038249 4.084891076185987 9.932742637007223 4.29542218114244 9.995841424330106 4.561320850715008 C 10.058940211652988 4.827219520287576 9.97241530925066 5.1063928050891265 9.77 5.290000000000001 L 5.612 9.25 L 16.25 9.25 C 16.664213562373096 9.25 17 9.585786437626904 17 10 Z" stroke-linecap="round" />
</g>
</svg>