<?xml version="1.0" encoding="UTF-8"?>
<svg version="1.1" viewBox="0 0 2015 2048" width="1280" height="1280" xmlns="http://www.w3.org/2000/svg">
<path transform="translate(1562,1)" d="m0 0h40l37 2 34 4 28 5 30 7 29 9 28 11 19 9 23 13 21 14 16 12 10 9 8 7 19 19 9 11 12 15 10 15 9 15 11 20 11 25 9 25 8 29 5 24 5 35 2 30v39l-2 32-5 40-5 29-9 42-12 45-12 38-13 38-17 44-16 38-13 29-14 30-17 35-10 19-14 27-13 23-13 24-14 24-19 32-30 48-11 17-29 44-14 20-11 16-12 17-13 18-28 38-16 21-13 17-22 28-13 16-8 10-18 22-11 13-9 11-13 15-12 14-13 15-10 11-7 8-11 12-7 8-24 26-14 15-9 9-7 8-23 23-7 8-23 23-8 7-24 24-8 7-11 11-8 7-7 7-8 7-15 14-8 7-10 9-8 7-14 12-10 9-11 9-14 12-11 9-17 14-14 11-16 13-16 12-18 14-19 14-18 13-34 24-48 32-19 12-21 13-27 16-21 12-27 15-33 17-34 17-31 14-38 16-40 15-36 12-34 10-40 10-40 8-42 6-34 3-23 1h-37l-35-2-34-4-33-6-31-8-30-10-26-11-16-8-17-9-19-12-19-14-13-11-12-11-15-15-18-22-12-17-13-22-12-24-10-26-8-26-6-26-4-26-2-20-1-19v-33l2-34 4-35 7-39 8-34 10-34 12-35 14-35 15-33 9-19 10-19 12-22 16-27 13-21 22-33 12-17 13-18 13-17 14-18 18-22 11-13 12-14 10-11 7-8 22-24 10-10 7-8 33-33 8-7 13-13 8-7 16-15 8-7 10-9 11-9 10-9 11-9 13-11 25-20 17-13 18-14 19-14 18-13 20-14 23-16 26-17 22-14 24-15 27-16 26-15 46-25 39-20 27-13 36-16 30-13 44-17 34-12 34-11 43-12 35-8 31-6 35-5 35-3h55l31 3 28 5 25 7 22 8 16 8 16 9 16 12 10 9 14 14 11 15 9 15 8 17 7 22 4 20 1 9v37l-3 21-5 19-5 15 11-13 22-28 13-17 14-19 13-18 13-19 16-24 16-25 15-25 15-26 14-26 15-29 17-37 15-37 12-34 10-35 6-27 4-23 3-34v-21l-2-23-4-21-8-24-8-16-9-15-13-17-11-12-13-13-17-13-19-12-15-8-19-8-27-9-26-6-24-4-33-3h-58l-37 3-38 5-39 7-48 11-37 10-45 14-41 14-47 18-36 15-36 16-28 13-29 14-36 18-22 12-26 14-24 14-23 13-28 17-38 24-33 22-22 15-4 3-4-1-14-20-2-3 1-4 14-12 14-11 16-13 16-12 18-14 54-39 63-42 19-12 24-15 27-16 26-15 25-14 26-14 27-14 46-23 33-15 29-13 44-18 40-15 37-13 44-14 55-15 39-9 40-8 46-7 34-4 39-3zm-378 724-29 3-29 5-30 7-30 9-29 10-37 15-26 12-29 14-22 12-18 10-28 17-21 13-34 23-17 12-16 12-17 13-14 11-22 18-14 12-10 9-8 7-10 9-13 12-13 13-8 7-7 7-7 8-13 13-7 8-12 13-9 11-13 15-10 13-13 17-13 18-15 23-13 22-9 16-13 28-9 24-6 21-4 21-1 10v27l3 21 6 20 10 21 10 14 12 13 12 10 18 11 16 7 16 5 22 4 9 1h35l27-3 30-6 29-8 32-11 34-14 29-14 16-8 21-11 24-14 20-12 22-14 31-21 17-12 18-13 21-16 13-10 14-11 17-14 11-9 13-11 28-24 13-12 8-7 10-9 13-12 17-16 7-7 8-7 17-17 7-8 11-12 9-10 11-12 9-10 11-12 13-18 14-21 13-22 12-23 10-22 9-25 6-22 4-21 1-9v-33l-3-17-5-16-8-16-9-12-13-13-15-10-19-9-20-6-23-4-11-1z"/>
</svg>
