<?xml version="1.0" encoding="UTF-8" standalone="no" ?>
<!DOCTYPE svg PUBLIC "-//W3C//DTD SVG 1.1//EN" "http://www.w3.org/Graphics/SVG/1.1/DTD/svg11.dtd">
<svg xmlns="http://www.w3.org/2000/svg" xmlns:xlink="http://www.w3.org/1999/xlink" version="1.1" width="1080" height="1080" viewBox="0 0 1080 1080" xml:space="preserve">
<desc>Created with Fabric.js 5.2.4</desc>
<defs>
</defs>
<rect x="0" y="0" width="100%" height="100%" fill="transparent"></rect>
<g transform="matrix(1 0 0 1 540 540)" id="ce8381c5-3e20-489a-8db1-733ffbc23ff5"  >
<rect style="stroke: none; stroke-width: 1; stroke-dasharray: none; stroke-linecap: butt; stroke-dashoffset: 0; stroke-linejoin: miter; stroke-miterlimit: 4; fill: rgb(255,255,255); fill-rule: nonzero; opacity: 1; visibility: hidden;" vector-effect="non-scaling-stroke"  x="-540" y="-540" rx="0" ry="0" width="1080" height="1080" />
</g>
<g transform="matrix(1 0 0 1 540 540)" id="e1187f24-e4db-4344-98d6-874f517c718b"  >
</g>
<g transform="matrix(45 0 0 45 540 540)"  >
<g style=""   >
		<g transform="matrix(1 0 0 1 0 -6.75)"  >
<path style="stroke: none; stroke-width: 1; stroke-dasharray: none; stroke-linecap: butt; stroke-dashoffset: 0; stroke-linejoin: miter; stroke-miterlimit: 4; fill: rgb(0,0,0); fill-rule: nonzero; opacity: 1;" vector-effect="non-scaling-stroke"  transform=" translate(-12, -5.25)" d="M 5.85 3.5 C 6.1102369444797615 3.189862744102502 6.077362172154656 2.7291640069728675 5.775724452922963 2.4591212860850495 C 5.474086733691271 2.1890785651972324 5.012571062159294 2.2071717124816717 4.733 2.5 C 3.5044703613813515 3.870249315344179 2.690232973730409 5.561144333310955 2.384999999999999 7.376000000000003 C 2.3262736909652215 7.779635156236936 2.6008877599532374 8.156203869344818 3.0031566248367296 8.223656660751923 C 3.405425489720222 8.291109452159025 3.7878523577933443 8.02471393201339 3.864 7.6240000000000006 C 4.122135103552312 6.08900883595035 4.810846450068498 4.658875103305458 5.849999999999997 3.5000000000000018 Z M 19.267 2.5 C 19.088840108958195 2.29847230138424 18.816399899915126 2.2077863725526807 18.553001222208504 2.2623344858820604 C 18.289602544501882 2.3168825992114406 18.07558621958106 2.5083104390332864 17.992117074609208 2.764019769960143 C 17.90864792963736 3.019729100886999 17.96850968055094 3.3005567632869743 18.149 3.5 C 19.18846998600013 4.658787223658111 19.87752662110521 6.088917854344241 20.136000000000006 7.6240000000000006 C 20.20448330897902 8.032690714874787 20.591309285125217 8.308483308979019 21.000000000000004 8.24 C 21.40869071487479 8.171516691020981 21.684483308979022 7.784690714874786 21.616000000000003 7.3759999999999994 C 21.310143331877136 5.560945583972458 20.49520860290236 3.870042716533736 19.266 2.5000000000000027 Z" stroke-linecap="round" />
</g>
		<g transform="matrix(1 0 0 1 0 0)"  >
<path style="stroke: none; stroke-width: 1; stroke-dasharray: none; stroke-linecap: butt; stroke-dashoffset: 0; stroke-linejoin: miter; stroke-miterlimit: 4; fill: rgb(0,0,0); fill-rule: evenodd; opacity: 1;" vector-effect="non-scaling-stroke"  transform=" translate(-12, -12)" d="M 12 2.25 C 8.272077938642145 2.25 5.25 5.272077938642145 5.25 9 L 5.25 9.75 C 5.253078597462109 11.789190865321036 4.497806567988515 13.756676284242339 3.131000000000004 15.269999999999996 C 2.964333039788527 15.45488984877729 2.900258277395912 15.710424751449725 2.959970426744114 15.952078617603858 C 3.0196825760923165 16.19373248375799 3.1954004820039263 16.390015135058405 3.4289999999999994 16.476 C 4.973 17.046 6.589 17.465999999999998 8.26 17.718999999999998 C 8.157446795126367 19.12045749440562 8.847012532277992 20.461640023852766 10.046489067994493 21.193662092318654 C 11.245965603710992 21.925684160784545 12.754034396289006 21.925684160784545 13.953510932005507 21.193662092318657 C 15.152987467722008 20.461640023852766 15.842553204873635 19.12045749440562 15.74 17.718999999999998 C 17.388010918589064 17.469153974880182 19.00633809234294 17.052342586857446 20.569999999999993 16.475 C 20.803229487241072 16.388896878455604 20.978633557856952 16.19281347522383 21.038318874881877 15.951468485240495 C 21.0980041919068 15.710123495257161 21.034212989887592 15.454886406344674 20.868 15.269999999999998 C 19.5015565262442 13.756526852015321 18.746647278978195 11.789057992285215 18.75 9.750000000000002 L 18.75 9 C 18.75 5.272077938642145 15.727922061357855 2.25 12 2.25 Z M 9.75 18 C 9.75 17.966 9.75 17.933 9.752 17.9 C 11.247637129533652 18.03476299665236 12.752362870466353 18.034762996652365 14.248000000000006 17.900000000000002 L 14.250000000000002 18 C 14.250000000000002 19.242640687119284 13.242640687119287 20.25 12.000000000000002 20.25 C 10.757359312880716 20.25 9.750000000000002 19.242640687119284 9.750000000000002 18 Z" stroke-linecap="round" />
</g>
</g>
</g>
</svg>