<?xml version="1.0" encoding="UTF-8" standalone="no" ?>
<!DOCTYPE svg PUBLIC "-//W3C//DTD SVG 1.1//EN" "http://www.w3.org/Graphics/SVG/1.1/DTD/svg11.dtd">
<svg xmlns="http://www.w3.org/2000/svg" xmlns:xlink="http://www.w3.org/1999/xlink" version="1.1" width="1080" height="1080" viewBox="0 0 1080 1080" xml:space="preserve">
<desc>Created with Fabric.js 5.2.4</desc>
<defs>
</defs>
<rect x="0" y="0" width="100%" height="100%" fill="transparent"></rect>
<g transform="matrix(1 0 0 1 540 540)" id="0bafb88c-a366-476b-85ea-88a1d23aabff"  >
<rect style="stroke: none; stroke-width: 1; stroke-dasharray: none; stroke-linecap: butt; stroke-dashoffset: 0; stroke-linejoin: miter; stroke-miterlimit: 4; fill: rgb(255,255,255); fill-rule: nonzero; opacity: 1; visibility: hidden;" vector-effect="non-scaling-stroke"  x="-540" y="-540" rx="0" ry="0" width="1080" height="1080" />
</g>
<g transform="matrix(1 0 0 1 540 540)" id="5a6ac49a-159e-4614-9e65-fd0b308979c3"  >
</g>
<g transform="matrix(NaN NaN NaN NaN 0 0)"  >
<g style=""   >
</g>
</g>
<g transform="matrix(NaN NaN NaN NaN 0 0)"  >
<g style=""   >
</g>
</g>
<g transform="matrix(45 0 0 45 540 540)"  >
<g style=""   >
		<g transform="matrix(1 0 0 1 0 2.46)"  >
<path style="stroke: none; stroke-width: 1; stroke-dasharray: none; stroke-linecap: butt; stroke-dashoffset: 0; stroke-linejoin: miter; stroke-miterlimit: 4; fill: rgb(108,117,125); fill-rule: nonzero; opacity: 1;" vector-effect="non-scaling-stroke"  transform=" translate(-12, -14.46)" d="M 1.5 8.67 L 1.5 17.25 C 1.5 18.90685424949238 2.8431457505076194 20.25 4.5 20.25 L 19.5 20.25 C 21.15685424949238 20.25 22.5 18.90685424949238 22.5 17.25 L 22.5 8.67 L 13.572 14.163 C 12.607921654372204 14.756126946891035 11.392078345627795 14.756126946891035 10.428 14.163 L 1.5 8.67 Z" stroke-linecap="round" />
</g>
		<g transform="matrix(1 0 0 1 0 -3.57)"  >
<path style="stroke: none; stroke-width: 1; stroke-dasharray: none; stroke-linecap: butt; stroke-dashoffset: 0; stroke-linejoin: miter; stroke-miterlimit: 4; fill: rgb(108,117,125); fill-rule: nonzero; opacity: 1;" vector-effect="non-scaling-stroke"  transform=" translate(-12, -8.43)" d="M 22.5 6.908 L 22.5 6.75 C 22.5 5.093145750507619 21.15685424949238 3.75 19.5 3.75 L 4.5 3.75 C 2.8431457505076194 3.75 1.5 5.093145750507619 1.5 6.75 L 1.5 6.908 L 11.214 12.886 C 11.696039172813899 13.182563473445517 12.303960827186103 13.182563473445517 12.786000000000001 12.886 L 22.5 6.908 Z" stroke-linecap="round" />
</g>
</g>
</g>
<g transform="matrix(NaN NaN NaN NaN 0 0)"  >
<g style=""   >
</g>
</g>
<g transform="matrix(NaN NaN NaN NaN 0 0)"  >
<g style=""   >
</g>
</g>
</svg>