<?xml version="1.0" ?><svg data-name="Layer 1" id="Layer_1" viewBox="0 0 64 64" xmlns="http://www.w3.org/2000/svg"><title/><path d="M42.8,45H40.941A.976.976,0,0,1,40,43.992V35.008A.976.976,0,0,1,40.941,34H53.632a.382.382,0,0,1,.368.4V43a1.937,1.937,0,0,1-1.867,2h-2.8" style="fill:#fff;stroke:#000;stroke-miterlimit:10;stroke-width:2px"/><path d="M12,20H38a2,2,0,0,1,2,2V37a0,0,0,0,1,0,0H10a0,0,0,0,1,0,0V22A2,2,0,0,1,12,20Z" style="fill:none;stroke:#000;stroke-miterlimit:10;stroke-width:2px"/><line style="fill:none;stroke:#000;stroke-linecap:round;stroke-linejoin:round;stroke-width:2px" x1="4" x2="19" y1="28" y2="28"/><line style="fill:none;stroke:#000;stroke-linecap:round;stroke-linejoin:round;stroke-width:2px" x1="5" x2="20" y1="31" y2="31"/><line style="fill:none;stroke:#000;stroke-linecap:round;stroke-linejoin:round;stroke-width:2px" x1="8" x2="24" y1="34" y2="34"/><line style="fill:#fff;stroke:#000;stroke-linecap:round;stroke-linejoin:round;stroke-width:2px" x1="10" x2="13" y1="41" y2="41"/><line style="fill:none;stroke:#000;stroke-linecap:round;stroke-linejoin:round;stroke-width:2px" x1="40" x2="31" y1="41" y2="41"/><line style="fill:none;stroke:#000;stroke-linecap:round;stroke-linejoin:round;stroke-width:2px" x1="43" x2="44" y1="37" y2="37"/><circle cx="46.5" cy="46.5" r="3.5" style="fill:none;stroke:#000;stroke-miterlimit:10;stroke-width:2px"/><path d="M53.982,33.688a.23.23,0,0,1-.227.312h-13.4A.357.357,0,0,1,40,33.643V27.359A.36.36,0,0,1,40.36,27H50.648a.677.677,0,0,1,.62.406Z" style="fill:none;stroke:#000;stroke-miterlimit:10;stroke-width:2px"/><circle cx="17.5" cy="46.5" r="3.5" style="fill:none;stroke:#000;stroke-miterlimit:10;stroke-width:2px"/><path d="M14,45H12a2,2,0,0,1-2-2V37H40v8H21" style="fill:none;stroke:#000;stroke-miterlimit:10;stroke-width:2px"/><line style="fill:none;stroke:#000;stroke-linecap:round;stroke-linejoin:round;stroke-width:2px" x1="50" x2="54" y1="41" y2="41"/></svg>