<?xml version="1.0" encoding="UTF-8" standalone="no" ?>
<!DOCTYPE svg PUBLIC "-//W3C//DTD SVG 1.1//EN" "http://www.w3.org/Graphics/SVG/1.1/DTD/svg11.dtd">
<svg xmlns="http://www.w3.org/2000/svg" xmlns:xlink="http://www.w3.org/1999/xlink" version="1.1" width="1080" height="1080" viewBox="0 0 1080 1080" xml:space="preserve">
<desc>Created with Fabric.js 5.2.4</desc>
<defs>
</defs>
<rect x="0" y="0" width="100%" height="100%" fill="transparent"></rect>
<g transform="matrix(1 0 0 1 540 540)" id="d3b4b088-eaa1-43f2-a967-84ed3e00153b"  >
<rect style="stroke: none; stroke-width: 1; stroke-dasharray: none; stroke-linecap: butt; stroke-dashoffset: 0; stroke-linejoin: miter; stroke-miterlimit: 4; fill: rgb(255,255,255); fill-rule: nonzero; opacity: 1; visibility: hidden;" vector-effect="non-scaling-stroke"  x="-540" y="-540" rx="0" ry="0" width="1080" height="1080" />
</g>
<g transform="matrix(1 0 0 1 540 540)" id="2cef676a-7d93-4e75-9270-3fa879917874"  >
</g>
<g transform="matrix(1.69 0 0 1.69 540 540)"  >
<path style="stroke: none; stroke-width: 1; stroke-dasharray: none; stroke-linecap: butt; stroke-dashoffset: 0; stroke-linejoin: miter; stroke-miterlimit: 4; fill: rgb(255,255,255); fill-rule: nonzero; opacity: 1;"  transform=" translate(-320, -256)" d="M 112 0 C 85.5 0 64 21.5 64 48 L 64 96 L 16 96 C 7.199999999999999 96 0 103.2 0 112 C 0 120.8 7.2 128 16 128 L 64 128 L 272 128 C 280.8 128 288 135.2 288 144 C 288 152.8 280.8 160 272 160 L 64 160 L 48 160 C 39.2 160 32 167.2 32 176 C 32 184.8 39.2 192 48 192 L 64 192 L 240 192 C 248.8 192 256 199.2 256 208 C 256 216.8 248.8 224 240 224 L 64 224 L 16 224 C 7.199999999999999 224 0 231.2 0 240 C 0 248.8 7.2 256 16 256 L 64 256 L 208 256 C 216.8 256 224 263.2 224 272 C 224 280.8 216.8 288 208 288 L 64 288 L 64 416 C 64 469 107 512 160 512 C 213 512 256 469 256 416 L 384 416 C 384 469 427 512 480 512 C 533 512 576 469 576 416 L 608 416 C 625.7 416 640 401.7 640 384 C 640 366.3 625.7 352 608 352 L 608 288 L 608 256 L 608 237.3 C 608 220.3 601.3 204 589.3 192 L 512 114.7 C 500 102.7 483.7 96 466.7 96 L 416 96 L 416 48 C 416 21.5 394.5 0 368 0 L 112 0 z M 544 237.3 L 544 256 L 416 256 L 416 160 L 466.7 160 L 544 237.3 z M 160 368 C 186.50966799187808 368 208 389.4903320081219 208 416 C 208 442.5096679918781 186.5096679918781 464 160.00000000000003 464 C 133.49033200812192 464 112 442.5096679918781 112 416 C 112 389.4903320081219 133.49033200812192 368 160 368 z M 432 416 C 432 389.4903320081219 453.4903320081219 368 480 368 C 506.5096679918781 368 528 389.4903320081219 528 416 C 528 442.5096679918781 506.5096679918781 464 480 464 C 453.4903320081219 464 432 442.5096679918781 432 416 z" stroke-linecap="round" />
</g>
</svg>