<?xml version="1.0" encoding="UTF-8"?>
<svg xmlns="http://www.w3.org/2000/svg" xmlns:xlink="http://www.w3.org/1999/xlink" width="194pt" height="194pt" viewBox="0 0 194 194" version="1.1">
<g id="surface1">
<path style=" stroke:none;fill-rule:evenodd;fill:rgb(100%,100%,100%);fill-opacity:1;" d="M 0.257813 0.675781 L 193.015625 0.675781 L 193.015625 193.433594 L 0.257813 193.433594 L 0.257813 0.675781 "/>
<path style=" stroke:none;fill-rule:evenodd;fill:rgb(100%,100%,100%);fill-opacity:1;" d="M 21.660156 71.101563 L 55.496094 71.101563 C 59.46875 71.101563 62.675781 74.175781 62.675781 78.148438 L 62.675781 78.664063 C 62.675781 82.636719 59.46875 85.839844 55.496094 85.839844 L 21.660156 85.839844 C 17.6875 85.839844 14.355469 82.636719 14.355469 78.664063 L 14.355469 78.148438 C 14.355469 74.175781 17.6875 71.101563 21.660156 71.101563 "/>
<path style=" stroke:none;fill-rule:evenodd;fill:rgb(11.399841%,21.199036%,36.099243%);fill-opacity:1;" d="M 14.355469 96.992188 C 14.355469 93.144531 17.945313 90.328125 21.917969 90.328125 L 51.90625 90.328125 C 55.882813 90.328125 59.085938 93.53125 59.085938 97.503906 L 59.085938 97.886719 C 59.085938 101.859375 55.882813 105.066406 51.90625 105.066406 L 31.53125 105.066406 C 30.503906 105.066406 29.605469 105.960938 29.605469 106.988281 L 29.605469 116.984375 C 29.605469 120.957031 26.402344 124.160156 22.429688 124.160156 L 21.53125 124.160156 C 17.558594 124.160156 14.355469 120.957031 14.355469 116.984375 L 14.355469 96.992188 "/>
<path style=" stroke:none;fill-rule:evenodd;fill:rgb(11.399841%,21.199036%,36.099243%);fill-opacity:1;" d="M 67.289063 116.984375 L 67.160156 77.253906 C 67.160156 73.28125 70.234375 69.949219 74.335938 69.949219 L 75.105469 69.949219 C 79.078125 69.949219 82.28125 73.28125 82.28125 77.253906 L 82.410156 116.984375 C 82.410156 120.957031 79.207031 124.160156 75.234375 124.160156 L 74.335938 124.160156 C 70.363281 124.160156 67.289063 120.957031 67.289063 116.984375 "/>
<path style=" stroke:none;fill-rule:evenodd;fill:rgb(11.399841%,21.199036%,36.099243%);fill-opacity:1;" d="M 158.542969 74.691406 L 174.5625 100.835938 C 178.152344 106.476563 178.921875 107.886719 178.921875 112.113281 C 178.921875 118.652344 172.898438 123.648438 167.640625 123.648438 L 145.980469 123.648438 C 142.007813 123.648438 138.804688 120.957031 138.804688 116.984375 L 138.804688 116.601563 C 138.804688 112.628906 142.007813 109.421875 145.980469 109.421875 L 159.3125 109.421875 C 160.078125 109.421875 160.59375 109.292969 160.847656 108.78125 C 161.105469 108.140625 160.976563 107.886719 160.59375 107.242188 L 151.109375 91.992188 C 150.980469 91.734375 150.851563 91.351563 150.597656 91.351563 C 150.210938 91.351563 150.082031 91.734375 149.953125 91.992188 L 135.472656 116.855469 C 133.164063 120.832031 130.472656 123.648438 126.628906 123.648438 L 98.816406 123.648438 C 93.433594 123.648438 88.179688 118.523438 88.179688 113.140625 L 88.179688 77.253906 C 88.179688 73.28125 91.382813 70.074219 95.355469 70.074219 L 96.253906 70.074219 C 100.226563 70.074219 103.429688 73.28125 103.429688 77.253906 L 103.429688 106.601563 C 103.429688 107.628906 104.199219 108.527344 105.351563 108.527344 L 119.195313 108.527344 C 121.628906 108.527344 123.039063 107.628906 124.320313 105.449219 L 142.90625 74.691406 C 144.699219 71.742188 147.519531 70.203125 150.851563 70.203125 C 154.054688 70.203125 156.621094 71.613281 158.542969 74.691406 "/>
<path style=" stroke:none;fill-rule:evenodd;fill:rgb(92.89856%,10.998535%,14.099121%);fill-opacity:1;" d="M 21.660156 71.101563 L 55.496094 71.101563 C 59.46875 71.101563 62.675781 74.175781 62.675781 78.148438 L 62.675781 78.664063 C 62.675781 82.636719 59.46875 85.839844 55.496094 85.839844 L 21.660156 85.839844 C 17.6875 85.839844 14.355469 82.636719 14.355469 78.664063 L 14.355469 78.148438 C 14.355469 74.175781 17.6875 71.101563 21.660156 71.101563 "/>
</g>
</svg>
