<?xml version="1.0" encoding="UTF-8"?>
<svg version="1.1" viewBox="0 0 808 808" width="1280" height="1280" xmlns="http://www.w3.org/2000/svg">
<path transform="translate(1,3)" d="m0 0h803v803h-803z" fill="#fff"/>
<path transform="translate(394,291)" d="m0 0h10l10 3 6 4 8 9 3 8 1 131 1 4 5 1h60l9-2 6-4 13-21 18-30 17-28 12-20 17-28 7-11 9-9 11-5 4-1h14l10 3 9 7 6 7 14 23 13 21 14 23 32 52 8 14 4 11 1 8v10l-3 12-5 10-9 10-8 6-8 4-7 2h-106l-10-4-5-4-5-7-2-6v-15l4-10 6-7 9-5 7-2 64-1 1-5-12-20-12-19-16-26-1-2h-2l-13 23-16 27-30 52-10 15-6 7-10 7-6 2h-132l-12-5-8-6-5-5-6-8-4-9-1-4v-163l4-9 7-8 8-5z"/>
<path transform="translate(84,376)" d="m0 0h139l9 4 8 7 5 8 2 9-1 11-3 8-9 10-8 4-4 1-93 1-4 3-1 49-3 10-6 8-8 6-11 3h-9l-13-4-9-8-4-8-2-7v-90l4-11 6-7 9-5z"/>
<path transform="translate(303,291)" d="m0 0h16l10 4 7 6 5 8 2 7 1 100v75l-3 10-6 8-8 6-11 3h-9l-11-3-9-7-5-8-2-6-1-85v-91l3-10 4-6 9-8z"/>
<path transform="translate(83,296)" d="m0 0h155l10 4 7 6 5 9 2 9-1 11-4 9-7 8-10 5-4 1h-151l-11-4-9-8-5-10-1-5v-9l3-10 7-9 8-5z"/>
</svg>
