<?xml version="1.0" encoding="UTF-8" standalone="no" ?>
<!DOCTYPE svg PUBLIC "-//W3C//DTD SVG 1.1//EN" "http://www.w3.org/Graphics/SVG/1.1/DTD/svg11.dtd">
<svg xmlns="http://www.w3.org/2000/svg" xmlns:xlink="http://www.w3.org/1999/xlink" version="1.1" width="1080" height="1080" viewBox="0 0 1080 1080" xml:space="preserve">
<desc>Created with Fabric.js 5.2.4</desc>
<defs>
</defs>
<rect x="0" y="0" width="100%" height="100%" fill="transparent"></rect>
<g transform="matrix(1 0 0 1 540 540)" id="ca25765e-4ede-41b6-9318-ad00c2e2fa52"  >
<rect style="stroke: none; stroke-width: 1; stroke-dasharray: none; stroke-linecap: butt; stroke-dashoffset: 0; stroke-linejoin: miter; stroke-miterlimit: 4; fill: rgb(255,255,255); fill-rule: nonzero; opacity: 1; visibility: hidden;" vector-effect="non-scaling-stroke"  x="-540" y="-540" rx="0" ry="0" width="1080" height="1080" />
</g>
<g transform="matrix(1 0 0 1 540 540)" id="ce5a1e88-3bb6-4565-9430-8956acc3cff2"  >
</g>
<g transform="matrix(NaN NaN NaN NaN 0 0)"  >
<g style=""   >
</g>
</g>
<g transform="matrix(NaN NaN NaN NaN 0 0)"  >
<g style=""   >
</g>
</g>
<g transform="matrix(45 0 0 45 540 540)"  >
<path style="stroke: rgb(0,90,192); stroke-width: 1.5; stroke-dasharray: none; stroke-linecap: round; stroke-dashoffset: 0; stroke-linejoin: round; stroke-miterlimit: 4; fill: none; fill-rule: nonzero; opacity: 1;"  transform=" translate(-12, -12)" d="M 11.25 11.25 L 11.291 11.23 C 11.552839196495654 11.09919026748498 11.866853768031064 11.13265600931261 12.095243161702667 11.315711290035287 C 12.323632555374271 11.498766570757965 12.424663464406525 11.79796192906547 12.354000000000001 12.082 L 11.646 14.918000000000001 C 11.574824851263646 15.202189451769748 11.675640909443015 15.501807141263008 11.904136668294546 15.685162627904925 C 12.132632427146078 15.86851811454684 12.446974240774313 15.902042160379906 12.709000000000001 15.771 L 12.750000000000002 15.75 M 21 12 C 21 16.970562748477143 16.970562748477143 21 12 21 C 7.029437251522859 21 3 16.970562748477143 3 12 C 3 7.029437251522859 7.029437251522859 3 12 3 C 16.970562748477143 3 21 7.029437251522857 21 11.999999999999998 Z M 12 8.25 L 12.008 8.25 L 12.008 8.258 L 12 8.258 L 12 8.25 Z" stroke-linecap="round" />
</g>
<g transform="matrix(NaN NaN NaN NaN 0 0)"  >
<g style=""   >
</g>
</g>
<g transform="matrix(NaN NaN NaN NaN 0 0)"  >
<g style=""   >
</g>
</g>
</svg>