<?xml version="1.0" standalone="no"?>
<!DOCTYPE svg PUBLIC "-//W3C//DTD SVG 20010904//EN"
 "http://www.w3.org/TR/2001/REC-SVG-20010904/DTD/svg10.dtd">
<svg version="1.0" xmlns="http://www.w3.org/2000/svg"
 width="117.000000pt" height="171.000000pt" viewBox="0 0 117.000000 171.000000"
 preserveAspectRatio="xMidYMid meet">

<g transform="translate(0.000000,171.000000) scale(0.100000,-0.100000)"
fill="#000000" stroke="none">
<path d="M810 1653 c-684 -390 -682 -389 -737 -501 -65 -133 -29 -338 80 -450
71 -74 171 -112 295 -112 l57 0 -64 -38 c-85 -50 -163 -136 -191 -209 -39
-101 -25 -295 23 -325 37 -23 59 -12 503 254 127 76 248 154 267 175 20 20 51
66 69 102 32 64 33 70 32 181 0 134 -16 180 -86 256 -74 81 -166 114 -318 114
l-95 0 77 45 c100 59 181 138 216 212 23 51 27 70 27 160 0 88 -3 105 -21 130
-28 38 -74 40 -134 6z"/>
</g>
</svg>
