<?xml version="1.0" ?><svg data-name="Your Icons" id="Your_Icons" viewBox="0 0 48 48" xmlns="http://www.w3.org/2000/svg"><title/><path d="M37.6,14l-9.19-4a11,11,0,0,0-8.82,0L10.4,14A4,4,0,0,0,8,17.62V30.38a4,4,0,0,0,2.4,3.67l9.19,4a11,11,0,0,0,8.82,0l9.19-4A4,4,0,0,0,40,30.38V17.62A4,4,0,0,0,37.6,14ZM20.49,19.34,32.65,14l3.73,1.63L28,19.15A10,10,0,0,1,20.49,19.34Zm-5,.08,1.5.64v1.83l-1.5-.68ZM17.31,18,29.6,12.63l.56.25-12,5.29-.25.11Zm3.08-6.26A9,9,0,0,1,24,11a8.87,8.87,0,0,1,3.07.55L14.78,16.94,11.62,15.6ZM11.2,32.22A2,2,0,0,1,10,30.38V17.62a2,2,0,0,1,.07-.5l3.43,1.45v2.64A2,2,0,0,0,14.67,23l1.5.68a2,2,0,0,0,.83.19,2,2,0,0,0,2-2v-1l.19.08a12.12,12.12,0,0,0,3.81,1v15a8.84,8.84,0,0,1-2.61-.69ZM38,30.38a2,2,0,0,1-1.2,1.84l-9.19,4a8.84,8.84,0,0,1-2.61.69v-15a12,12,0,0,0,3.8-1l9.13-3.87a2,2,0,0,1,.07.5Z"/><path d="M31.15,22.35,28,23.52a1,1,0,0,0,.34,1.94,1,1,0,0,0,.34-.06l3.2-1.17a1,1,0,1,0-.68-1.88Z"/></svg>