<?xml version="1.0" encoding="UTF-8" standalone="no" ?>
<!DOCTYPE svg PUBLIC "-//W3C//DTD SVG 1.1//EN" "http://www.w3.org/Graphics/SVG/1.1/DTD/svg11.dtd">
<svg xmlns="http://www.w3.org/2000/svg" xmlns:xlink="http://www.w3.org/1999/xlink" version="1.1" width="1080" height="1080" viewBox="0 0 1080 1080" xml:space="preserve">
<desc>Created with Fabric.js 5.2.4</desc>
<defs>
</defs>
<rect x="0" y="0" width="100%" height="100%" fill="transparent"></rect>
<g transform="matrix(1 0 0 1 540 540)" id="9f7e9e4c-b25b-4aab-ad30-547912bd0e78"  >
<rect style="stroke: none; stroke-width: 1; stroke-dasharray: none; stroke-linecap: butt; stroke-dashoffset: 0; stroke-linejoin: miter; stroke-miterlimit: 4; fill: rgb(255,255,255); fill-rule: nonzero; opacity: 1; visibility: hidden;" vector-effect="non-scaling-stroke"  x="-540" y="-540" rx="0" ry="0" width="1080" height="1080" />
</g>
<g transform="matrix(1 0 0 1 540 540)" id="ebce81e5-cb1a-4eb3-a957-684b9efffbcc"  >
</g>
<g transform="matrix(NaN NaN NaN NaN 0 0)"  >
<g style=""   >
</g>
</g>
<g transform="matrix(NaN NaN NaN NaN 0 0)"  >
<g style=""   >
</g>
</g>
<g transform="matrix(NaN NaN NaN NaN 0 0)"  >
<g style=""   >
</g>
</g>
<g transform="matrix(NaN NaN NaN NaN 0 0)"  >
<g style=""   >
</g>
</g>
<g transform="matrix(NaN NaN NaN NaN 0 0)"  >
<g style=""   >
</g>
</g>
<g transform="matrix(NaN NaN NaN NaN 0 0)"  >
<g style=""   >
</g>
</g>
<g transform="matrix(45 0 0 45 540 540)"  >
<path style="stroke: none; stroke-width: 1; stroke-dasharray: none; stroke-linecap: butt; stroke-dashoffset: 0; stroke-linejoin: miter; stroke-miterlimit: 4; fill: rgb(21,37,54); fill-rule: nonzero; opacity: 1;"  transform=" translate(-11.95, -12)" d="M 2.25 2.25 C 1.8357864376269049 2.25 1.5 2.585786437626905 1.5 3 C 1.5 3.414213562373095 1.8357864376269049 3.75 2.25 3.75 L 3.636 3.75 C 3.806 3.75 3.954 3.864 3.998 4.0280000000000005 L 6.556 13.620000000000001 C 4.9036282659380355 14.05052513732975 3.7503565293896948 15.542462558452513 3.7499999999999996 17.25 C 3.75 17.664 4.086 18 4.5 18 L 20.25 18 C 20.664213562373096 18 21 17.664213562373096 21 17.25 C 21 16.835786437626904 20.664213562373096 16.5 20.25 16.5 L 5.378 16.5 C 5.695920358750512 15.600785295356852 6.5462388367308595 14.999711913184127 7.5 15 L 18.718 15 C 19.004660972302403 15.000004820239488 19.26625138683943 14.836607840239358 19.392 14.579 C 20.533684846055444 12.236100154793277 21.522421133952765 9.82171303015754 22.352 7.3510000000000275 C 22.41825533279234 7.15342055734991 22.39931810805113 6.9371824795964105 22.299728368433843 6.75412705344273 C 22.200138628816557 6.571071627289049 22.0288762617093 6.437704740978217 21.827 6.386000000000001 C 16.552807526775467 5.041150119957411 11.122049023422973 4.409854293439015 5.6799999999999535 4.509000000000006 L 5.4479999999999995 3.6420000000000003 C 5.229138232309553 2.8210545319543687 4.485618690339571 2.2498739566661703 3.636 2.25 L 2.25 2.25 Z M 3.75 20.25 C 3.75 19.42157287525381 4.42157287525381 18.75 5.25 18.75 C 6.07842712474619 18.75 6.75 19.42157287525381 6.75 20.25 C 6.75 21.07842712474619 6.07842712474619 21.75 5.25 21.75 C 4.42157287525381 21.75 3.75 21.07842712474619 3.75 20.25 Z M 16.5 20.25 C 16.5 19.42157287525381 17.17157287525381 18.75 18 18.75 C 18.82842712474619 18.75 19.5 19.42157287525381 19.5 20.25 C 19.5 21.07842712474619 18.82842712474619 21.75 18 21.75 C 17.17157287525381 21.75 16.5 21.07842712474619 16.5 20.25 Z" stroke-linecap="round" />
</g>
<g transform="matrix(NaN NaN NaN NaN 0 0)"  >
<g style=""   >
</g>
</g>
<g transform="matrix(NaN NaN NaN NaN 0 0)"  >
<g style=""   >
</g>
</g>
</svg>