<?xml version="1.0" encoding="UTF-8" standalone="no" ?>
<!DOCTYPE svg PUBLIC "-//W3C//DTD SVG 1.1//EN" "http://www.w3.org/Graphics/SVG/1.1/DTD/svg11.dtd">
<svg xmlns="http://www.w3.org/2000/svg" xmlns:xlink="http://www.w3.org/1999/xlink" version="1.1" width="1080" height="1080" viewBox="0 0 1080 1080" xml:space="preserve">
<desc>Created with Fabric.js 5.2.4</desc>
<defs>
</defs>
<rect x="0" y="0" width="100%" height="100%" fill="transparent"></rect>
<g transform="matrix(1 0 0 1 540 540)" id="ce8381c5-3e20-489a-8db1-733ffbc23ff5"  >
<rect style="stroke: none; stroke-width: 1; stroke-dasharray: none; stroke-linecap: butt; stroke-dashoffset: 0; stroke-linejoin: miter; stroke-miterlimit: 4; fill: rgb(255,255,255); fill-rule: nonzero; opacity: 1; visibility: hidden;" vector-effect="non-scaling-stroke"  x="-540" y="-540" rx="0" ry="0" width="1080" height="1080" />
</g>
<g transform="matrix(1 0 0 1 540 540)" id="e1187f24-e4db-4344-98d6-874f517c718b"  >
</g>
<g transform="matrix(45 0 0 45 540 540)"  >
<path style="stroke: rgb(0,0,0); stroke-width: 1.5; stroke-dasharray: none; stroke-linecap: round; stroke-dashoffset: 0; stroke-linejoin: round; stroke-miterlimit: 4; fill: none; fill-rule: nonzero; opacity: 1;"  transform=" translate(-12, -12)" d="M 14.857 17.082 C 16.72020179959749 16.861397469686217 18.55086105432579 16.42169016794546 20.31100000000001 15.771999999999995 C 18.82037601156391 14.120807131620671 17.996709007467008 11.974497006708722 18 9.750000000000007 L 18 9 C 18 5.686291501015239 15.313708498984761 3 12 3 C 8.686291501015239 3 6 5.686291501015239 6 9 L 6 9.75 C 6.0030168499921315 11.974629844708291 5.178987080352631 14.120956519781418 3.688000000000006 15.771999999999993 C 5.421 16.412 7.248 16.857 9.143 17.082 M 14.857000000000001 17.082 C 12.958986149510727 17.307134601627933 11.041013850489271 17.307134601627933 9.142999999999999 17.082 M 14.857000000000001 17.082 C 15.252544398374699 18.316809176059945 14.810028342359837 19.66599500729395 13.759989774834025 20.42667107440516 C 12.709951207308213 21.18734714151637 11.290048792691792 21.18734714151637 10.240010225165978 20.426671074405164 C 9.189971657640164 19.66599500729395 8.747455601625303 18.316809176059948 9.143 17.082000000000004 M 3.124 7.5 C 3.4059694692522324 5.824968806392485 4.157795891693847 4.264443483058874 5.291999999999996 3.0000000000000027 M 18.708 3 C 19.84220410830615 4.264443483058871 20.594030530747766 5.824968806392482 20.875999999999998 7.4999999999999964" stroke-linecap="round" />
</g>
</svg>