<?xml version="1.0" encoding="UTF-8" standalone="no" ?>
<!DOCTYPE svg PUBLIC "-//W3C//DTD SVG 1.1//EN" "http://www.w3.org/Graphics/SVG/1.1/DTD/svg11.dtd">
<svg xmlns="http://www.w3.org/2000/svg" xmlns:xlink="http://www.w3.org/1999/xlink" version="1.1" width="1080" height="1080" viewBox="0 0 1080 1080" xml:space="preserve">
<desc>Created with Fabric.js 5.2.4</desc>
<defs>
</defs>
<rect x="0" y="0" width="100%" height="100%" fill="transparent"></rect>
<g transform="matrix(1 0 0 1 540 540)" id="9f7e9e4c-b25b-4aab-ad30-547912bd0e78"  >
<rect style="stroke: none; stroke-width: 1; stroke-dasharray: none; stroke-linecap: butt; stroke-dashoffset: 0; stroke-linejoin: miter; stroke-miterlimit: 4; fill: rgb(255,255,255); fill-rule: nonzero; opacity: 1; visibility: hidden;" vector-effect="non-scaling-stroke"  x="-540" y="-540" rx="0" ry="0" width="1080" height="1080" />
</g>
<g transform="matrix(1 0 0 1 540 540)" id="ebce81e5-cb1a-4eb3-a957-684b9efffbcc"  >
</g>
<g transform="matrix(NaN NaN NaN NaN 0 0)"  >
<g style=""   >
</g>
</g>
<g transform="matrix(NaN NaN NaN NaN 0 0)"  >
<g style=""   >
</g>
</g>
<g transform="matrix(45 0 0 45 540 540)"  >
<path style="stroke: rgb(21,37,54); stroke-width: 1.5; stroke-dasharray: none; stroke-linecap: round; stroke-dashoffset: 0; stroke-linejoin: round; stroke-miterlimit: 4; fill: none; fill-rule: nonzero; opacity: 1;"  transform=" translate(-12, -12)" d="M 15.75 10.5 L 15.75 6 C 15.75 3.9289321881345245 14.071067811865476 2.25 12 2.25 C 9.928932188134524 2.25 8.25 3.928932188134524 8.25 5.999999999999999 L 8.25 10.5 M 19.606 8.507 L 20.869 20.506999999999998 C 20.939 21.171999999999997 20.419 21.749999999999996 19.75 21.749999999999996 L 4.25 21.749999999999996 C 3.930884176942694 21.75034198674637 3.626637535274917 21.61514250231648 3.413023231076566 21.378068770067774 C 3.1994089268782147 21.14099503781907 3.096528093423582 20.82435572619793 3.13 20.506999999999998 L 4.394 8.506999999999998 C 4.454386489754197 7.934456950106238 4.937281265668132 7.499894805919167 5.513 7.5 L 18.487000000000002 7.5 C 19.063000000000002 7.5 19.546000000000003 7.935 19.606 8.507 Z M 8.625 10.5 C 8.625 10.707106781186548 8.457106781186548 10.875 8.25 10.875 C 8.042893218813452 10.875 7.875 10.707106781186548 7.875 10.5 C 7.875 10.292893218813452 8.042893218813452 10.125 8.25 10.125 C 8.457106781186548 10.125 8.625 10.292893218813452 8.625 10.5 Z M 16.125 10.5 C 16.125 10.707106781186548 15.957106781186548 10.875 15.75 10.875 C 15.542893218813452 10.875 15.375 10.707106781186548 15.375 10.5 C 15.375 10.292893218813452 15.542893218813452 10.125 15.75 10.125 C 15.957106781186548 10.125 16.125 10.292893218813452 16.125 10.5 Z" stroke-linecap="round" />
</g>
<g transform="matrix(NaN NaN NaN NaN 0 0)"  >
<g style=""   >
</g>
</g>
<g transform="matrix(NaN NaN NaN NaN 0 0)"  >
<g style=""   >
</g>
</g>
</svg>