<?xml version="1.0" encoding="UTF-8" standalone="no" ?>
<!DOCTYPE svg PUBLIC "-//W3C//DTD SVG 1.1//EN" "http://www.w3.org/Graphics/SVG/1.1/DTD/svg11.dtd">
<svg xmlns="http://www.w3.org/2000/svg" xmlns:xlink="http://www.w3.org/1999/xlink" version="1.1" width="1080" height="1080" viewBox="0 0 1080 1080" xml:space="preserve">
<desc>Created with Fabric.js 5.2.4</desc>
<defs>
</defs>
<rect x="0" y="0" width="100%" height="100%" fill="transparent"></rect>
<g transform="matrix(1 0 0 1 540 540)" id="9f7e9e4c-b25b-4aab-ad30-547912bd0e78"  >
<rect style="stroke: none; stroke-width: 1; stroke-dasharray: none; stroke-linecap: butt; stroke-dashoffset: 0; stroke-linejoin: miter; stroke-miterlimit: 4; fill: rgb(255,255,255); fill-rule: nonzero; opacity: 1; visibility: hidden;" vector-effect="non-scaling-stroke"  x="-540" y="-540" rx="0" ry="0" width="1080" height="1080" />
</g>
<g transform="matrix(1 0 0 1 540 540)" id="ebce81e5-cb1a-4eb3-a957-684b9efffbcc"  >
</g>
<g transform="matrix(NaN NaN NaN NaN 0 0)"  >
<g style=""   >
</g>
</g>
<g transform="matrix(NaN NaN NaN NaN 0 0)"  >
<g style=""   >
</g>
</g>
<g transform="matrix(NaN NaN NaN NaN 0 0)"  >
<g style=""   >
</g>
</g>
<g transform="matrix(NaN NaN NaN NaN 0 0)"  >
<g style=""   >
</g>
</g>
<g transform="matrix(45 0 0 45 540 540)"  >
<path style="stroke: none; stroke-width: 1; stroke-dasharray: none; stroke-linecap: butt; stroke-dashoffset: 0; stroke-linejoin: miter; stroke-miterlimit: 4; fill: rgb(21,37,54); fill-rule: evenodd; opacity: 1;"  transform=" translate(-12, -12)" d="M 7.5 6 L 7.5 6.75 L 5.513 6.75 C 4.553 6.75 3.7489999999999997 7.474 3.6479999999999997 8.429 L 2.385 20.429000000000002 C 2.3294467516561337 20.95752890077302 2.500788311111131 21.48480543628282 2.8564191073791094 21.879717703881198 C 3.2120499036470878 22.27462997147958 3.7185595457696916 22.50007720994684 4.25 22.5 L 19.75 22.5 C 20.28144045423031 22.50007720994684 20.787950096352912 22.27462997147958 21.14358089262089 21.879717703881198 C 21.49921168888887 21.484805436282816 21.670553248343865 20.95752890077302 21.615 20.429 L 20.351999999999997 8.428999999999998 C 20.251673018053598 7.474497394086859 19.44676075589651 6.749860563973319 18.487 6.749999999999998 L 16.5 6.749999999999998 L 16.5 6 C 16.5 3.5147186257614296 14.485281374238571 1.5 12 1.5 C 9.514718625761429 1.5 7.5 3.514718625761429 7.5 5.999999999999999 Z M 12 3 C 10.34314575050762 3 9 4.343145750507619 9 6 L 9 6.75 L 15 6.75 L 15 6 C 15 4.343145750507619 13.65685424949238 3 12 3 Z M 9 11.25 C 9 12.90685424949238 10.34314575050762 14.25 12 14.25 C 13.65685424949238 14.25 15 12.90685424949238 15 11.25 L 15 10.5 C 15 10.085786437626904 15.335786437626904 9.75 15.75 9.75 C 16.164213562373096 9.75 16.5 10.085786437626904 16.5 10.5 L 16.5 11.25 C 16.5 13.735281374238571 14.485281374238571 15.75 12 15.75 C 9.514718625761429 15.75 7.5 13.735281374238571 7.5 11.25 L 7.5 10.5 C 7.5 10.085786437626904 7.835786437626905 9.75 8.25 9.75 C 8.664213562373096 9.75 9 10.085786437626904 9 10.5 L 9 11.25 Z" stroke-linecap="round" />
</g>
<g transform="matrix(NaN NaN NaN NaN 0 0)"  >
<g style=""   >
</g>
</g>
<g transform="matrix(NaN NaN NaN NaN 0 0)"  >
<g style=""   >
</g>
</g>
</svg>