<?xml version="1.0" encoding="UTF-8" standalone="no" ?>
<!DOCTYPE svg PUBLIC "-//W3C//DTD SVG 1.1//EN" "http://www.w3.org/Graphics/SVG/1.1/DTD/svg11.dtd">
<svg xmlns="http://www.w3.org/2000/svg" xmlns:xlink="http://www.w3.org/1999/xlink" version="1.1" width="1080" height="1080" viewBox="0 0 1080 1080" xml:space="preserve">
<desc>Created with Fabric.js 5.2.4</desc>
<defs>
</defs>
<rect x="0" y="0" width="100%" height="100%" fill="transparent"></rect>
<g transform="matrix(1 0 0 1 540 540)" id="0bafb88c-a366-476b-85ea-88a1d23aabff"  >
<rect style="stroke: none; stroke-width: 1; stroke-dasharray: none; stroke-linecap: butt; stroke-dashoffset: 0; stroke-linejoin: miter; stroke-miterlimit: 4; fill: rgb(255,255,255); fill-rule: nonzero; opacity: 1; visibility: hidden;" vector-effect="non-scaling-stroke"  x="-540" y="-540" rx="0" ry="0" width="1080" height="1080" />
</g>
<g transform="matrix(1 0 0 1 540 540)" id="5a6ac49a-159e-4614-9e65-fd0b308979c3"  >
</g>
<g transform="matrix(NaN NaN NaN NaN 0 0)"  >
<g style=""   >
</g>
</g>
<g transform="matrix(NaN NaN NaN NaN 0 0)"  >
<g style=""   >
</g>
</g>
<g transform="matrix(NaN NaN NaN NaN 0 0)"  >
<g style=""   >
</g>
</g>
<g transform="matrix(NaN NaN NaN NaN 0 0)"  >
<g style=""   >
</g>
</g>
<g transform="matrix(NaN NaN NaN NaN 0 0)"  >
<g style=""   >
</g>
</g>
<g transform="matrix(NaN NaN NaN NaN 0 0)"  >
<g style=""   >
</g>
</g>
<g transform="matrix(NaN NaN NaN NaN 0 0)"  >
<g style=""   >
</g>
</g>
<g transform="matrix(45 0 0 45 540 540)"  >
<g style=""   >
		<g transform="matrix(1 0 0 1 0.52 0.02)"  >
<path style="stroke: none; stroke-width: 1; stroke-dasharray: none; stroke-linecap: butt; stroke-dashoffset: 0; stroke-linejoin: miter; stroke-miterlimit: 4; fill: rgb(0,0,0); fill-rule: nonzero; opacity: 1;" vector-effect="non-scaling-stroke"  transform=" translate(-12.52, -12.02)" d="M 3.53 2.47 C 3.2344902455155182 2.1946411395708845 2.7739902780052628 2.2027661240826544 2.4883782010439583 2.4883782010439583 C 2.202766124082654 2.7739902780052628 2.194641139570884 3.2344902455155182 2.4699999999999998 3.5300000000000002 L 20.47 21.53 C 20.65697058046398 21.730653177612055 20.938555542158955 21.81324918150754 21.204288908638553 21.745385541874285 C 21.470022275118154 21.67752190224103 21.677521902241025 21.470022275118158 21.74538554187428 21.204288908638556 C 21.813249181507537 20.93855554215896 21.73065317761205 20.656970580463984 21.529999999999998 20.470000000000002 L 3.5299999999999976 2.4700000000000024 Z M 22.676 12.553 C 22.1369525066646 14.170485094440714 21.237288121064726 15.6442796599806 20.044999999999998 16.863 L 16.945999999999998 13.764 C 17.628446484652557 11.853318536142414 17.148864182467893 9.720434289543547 15.714214946462171 8.285785053537825 C 14.279565710456449 6.851135817532105 12.146681463857583 6.37155351534744 10.235999999999999 7.053999999999999 L 7.759 4.577 C 9.106022536995596 4.028960097883054 10.546760072686222 3.7480808093361055 12.001000000000005 3.7499999999999982 C 16.971 3.75 21.186 6.973 22.676000000000002 11.440000000000001 C 22.796000000000003 11.802000000000001 22.796000000000003 12.192000000000002 22.676000000000002 12.553 Z" stroke-linecap="round" />
</g>
		<g transform="matrix(1 0 0 1 0 0)"  >
<path style="stroke: none; stroke-width: 1; stroke-dasharray: none; stroke-linecap: butt; stroke-dashoffset: 0; stroke-linejoin: miter; stroke-miterlimit: 4; fill: rgb(0,0,0); fill-rule: nonzero; opacity: 1;" vector-effect="non-scaling-stroke"  transform=" translate(-12, -12)" d="M 15.75 12 C 15.75 12.18 15.737 12.357 15.713 12.53 L 11.469 8.286999999999999 C 12.545391626723163 8.13303152859025 13.635616648027145 8.45385395925392 14.4570475451925 9.166297995968462 C 15.278478442357855 9.878742032683006 15.750227668656304 10.912652230224856 15.75 11.999999999999998 Z M 12.53 15.713 L 8.286999999999999 11.469 C 8.119846325439967 12.637804313821103 8.51291505922575 13.817078243157981 9.34789182167964 14.651858262736647 C 10.182868584133532 15.486638282315315 11.362235109152678 15.879429103946702 12.530999999999999 15.712 Z" stroke-linecap="round" />
</g>
		<g transform="matrix(1 0 0 1 -3.26 1.69)"  >
<path style="stroke: none; stroke-width: 1; stroke-dasharray: none; stroke-linecap: butt; stroke-dashoffset: 0; stroke-linejoin: miter; stroke-miterlimit: 4; fill: rgb(0,0,0); fill-rule: nonzero; opacity: 1;" vector-effect="non-scaling-stroke"  transform=" translate(-8.74, -13.69)" d="M 6.75 12 C 6.75 11.381 6.857 10.786999999999999 7.054 10.236 L 3.954 7.136000000000001 C 2.7621008095062485 8.354842716731048 1.8627873005184985 9.828622649710976 1.3239999999999994 11.446000000000007 C 1.2040000000000002 11.808000000000002 1.2040000000000002 12.198000000000002 1.3240000000000003 12.560000000000002 C 2.8130000000000006 17.027 7.0280000000000005 20.250000000000004 11.999 20.250000000000004 C 13.499 20.250000000000004 14.932 19.956000000000003 16.241 19.423000000000002 L 13.764 16.946 C 12.156079551356315 17.519609858228648 10.369657459383419 17.275589052927224 8.974478827315252 16.29176334517 C 7.579300195247087 15.307937637412781 6.7496017813627605 13.707172012436216 6.75 12.000000000000002 Z" stroke-linecap="round" />
</g>
</g>
</g>
</svg>