<?xml version="1.0" encoding="UTF-8" standalone="no" ?>
<!DOCTYPE svg PUBLIC "-//W3C//DTD SVG 1.1//EN" "http://www.w3.org/Graphics/SVG/1.1/DTD/svg11.dtd">
<svg xmlns="http://www.w3.org/2000/svg" xmlns:xlink="http://www.w3.org/1999/xlink" version="1.1" width="1080" height="1080" viewBox="0 0 1080 1080" xml:space="preserve">
<desc>Created with Fabric.js 5.2.4</desc>
<defs>
</defs>
<rect x="0" y="0" width="100%" height="100%" fill="transparent"></rect>
<g transform="matrix(1 0 0 1 540 540)" id="d429343c-cd66-440b-9a13-72ce2c57da04"  >
<rect style="stroke: none; stroke-width: 1; stroke-dasharray: none; stroke-linecap: butt; stroke-dashoffset: 0; stroke-linejoin: miter; stroke-miterlimit: 4; fill: rgb(255,255,255); fill-rule: nonzero; opacity: 1; visibility: hidden;" vector-effect="non-scaling-stroke"  x="-540" y="-540" rx="0" ry="0" width="1080" height="1080" />
</g>
<g transform="matrix(1 0 0 1 540 540)" id="c91e82d2-191b-4841-ad20-d4a65281244c"  >
</g>
<g transform="matrix(45 0 0 45 540 540)"  >
<g style=""   >
		<g transform="matrix(1 0 0 1 0 -4.56)"  >
<path style="stroke: none; stroke-width: 1; stroke-dasharray: none; stroke-linecap: butt; stroke-dashoffset: 0; stroke-linejoin: miter; stroke-miterlimit: 4; fill: rgb(21,37,54); fill-rule: nonzero; opacity: 1;" vector-effect="non-scaling-stroke"  transform=" translate(-12, -7.44)" d="M 11.47 3.841 C 11.762817546773958 3.548546621942485 12.237182453226044 3.548546621942485 12.530000000000001 3.8409999999999997 L 21.22 12.530999999999999 C 21.408398205234537 12.725876607372609 21.687286621239338 12.803935578014146 21.94947505197084 12.735175105159424 C 22.211663482702342 12.666414632304704 22.416349662401423 12.461535352436096 22.48486287378388 12.199282200495619 C 22.553376085166335 11.93702904855514 22.47505417105369 11.658214362340416 22.279999999999998 11.469999999999999 L 13.590999999999998 2.7799999999999994 C 13.169042356411495 2.358037188701057 12.596741876444133 2.120980515279806 11.999999999999996 2.120980515279806 C 11.403258123555862 2.120980515279806 10.830957643588498 2.3580371887010574 10.408999999999997 2.78 L 1.7189999999999976 11.469999999999999 C 1.5241233926274032 11.658398205234539 1.4460644219858771 11.937286621239332 1.5148248948405998 12.199475051970825 C 1.5835853676953229 12.461663482702319 1.7884646475639225 12.666349662401391 2.0507177995043917 12.73486287378385 C 2.3129709514448606 12.80337608516631 2.5917856376595765 12.725054171053676 2.7799999999999976 12.53 L 11.469999999999997 3.8409999999999993 Z" stroke-linecap="round" />
</g>
		<g transform="matrix(1 0 0 1 0 1.59)"  >
<path style="stroke: none; stroke-width: 1; stroke-dasharray: none; stroke-linecap: butt; stroke-dashoffset: 0; stroke-linejoin: miter; stroke-miterlimit: 4; fill: rgb(21,37,54); fill-rule: nonzero; opacity: 1;" vector-effect="non-scaling-stroke"  transform=" translate(-12, -13.59)" d="M 12 5.432 L 20.159 13.591000000000001 C 20.189 13.621 20.218999999999998 13.649000000000001 20.25 13.677000000000001 L 20.25 19.875 C 20.25 20.91 19.41 21.75 18.375 21.75 L 15 21.75 C 14.585786437626904 21.75 14.25 21.414213562373096 14.25 21 L 14.25 16.5 C 14.25 16.085786437626904 13.914213562373096 15.75 13.5 15.75 L 10.5 15.75 C 10.085786437626904 15.75 9.75 16.085786437626904 9.75 16.5 L 9.75 21 C 9.75 21.414213562373096 9.414213562373096 21.75 9 21.75 L 5.625 21.75 C 4.589466094067262 21.75 3.75 20.910533905932738 3.75 19.875 L 3.75 13.677 C 3.7811114981877374 13.64916809769579 3.811456170774917 13.620490714811204 3.8409999999999993 13.591000000000001 L 12 5.432 Z" stroke-linecap="round" />
</g>
</g>
</g>
<g transform="matrix(NaN NaN NaN NaN 0 0)"  >
<g style=""   >
</g>
</g>
<g transform="matrix(NaN NaN NaN NaN 0 0)"  >
<g style=""   >
</g>
</g>
</svg>