<?xml version="1.0" encoding="UTF-8" standalone="no" ?>
<!DOCTYPE svg PUBLIC "-//W3C//DTD SVG 1.1//EN" "http://www.w3.org/Graphics/SVG/1.1/DTD/svg11.dtd">
<svg xmlns="http://www.w3.org/2000/svg" xmlns:xlink="http://www.w3.org/1999/xlink" version="1.1" width="1080" height="1080" viewBox="0 0 1080 1080" xml:space="preserve">
<desc>Created with Fabric.js 5.2.4</desc>
<defs>
</defs>
<rect x="0" y="0" width="100%" height="100%" fill="transparent"></rect>
<g transform="matrix(1 0 0 1 540 540)" id="9f7e9e4c-b25b-4aab-ad30-547912bd0e78"  >
<rect style="stroke: none; stroke-width: 1; stroke-dasharray: none; stroke-linecap: butt; stroke-dashoffset: 0; stroke-linejoin: miter; stroke-miterlimit: 4; fill: rgb(255,255,255); fill-rule: nonzero; opacity: 1; visibility: hidden;" vector-effect="non-scaling-stroke"  x="-540" y="-540" rx="0" ry="0" width="1080" height="1080" />
</g>
<g transform="matrix(1 0 0 1 540 540)" id="ebce81e5-cb1a-4eb3-a957-684b9efffbcc"  >
</g>
<g transform="matrix(NaN NaN NaN NaN 0 0)"  >
<g style=""   >
</g>
</g>
<g transform="matrix(NaN NaN NaN NaN 0 0)"  >
<g style=""   >
</g>
</g>
<g transform="matrix(NaN NaN NaN NaN 0 0)"  >
<g style=""   >
</g>
</g>
<g transform="matrix(NaN NaN NaN NaN 0 0)"  >
<g style=""   >
</g>
</g>
<g transform="matrix(NaN NaN NaN NaN 0 0)"  >
<g style=""   >
</g>
</g>
<g transform="matrix(NaN NaN NaN NaN 0 0)"  >
<g style=""   >
</g>
</g>
<g transform="matrix(NaN NaN NaN NaN 0 0)"  >
<g style=""   >
</g>
</g>
<g transform="matrix(NaN NaN NaN NaN 0 0)"  >
<g style=""   >
</g>
</g>
<g transform="matrix(45 0 0 45 540 540)"  >
<path style="stroke: rgb(21,37,54); stroke-width: 1.5; stroke-dasharray: none; stroke-linecap: round; stroke-dashoffset: 0; stroke-linejoin: round; stroke-miterlimit: 4; fill: none; fill-rule: nonzero; opacity: 1;"  transform=" translate(-11.95, -12)" d="M 2.25 3 L 3.636 3 C 4.146 3 4.591 3.343 4.723 3.835 L 5.106 5.272 M 7.5 14.25 C 5.843145750507619 14.25 4.5 15.59314575050762 4.5 17.25 L 20.25 17.25 M 7.5 14.25 L 18.718 14.25 C 19.839 11.95 20.818 9.565999999999999 21.642 7.112 C 16.24193399079331 5.735152104953533 10.676642004057957 5.115888845665124 5.105999999999934 5.271999999999997 M 7.5 14.25 L 5.106 5.272 M 6 20.25 C 6 20.664213562373096 5.664213562373095 21 5.25 21 C 4.835786437626905 21 4.5 20.664213562373096 4.5 20.25 C 4.5 19.835786437626904 4.835786437626905 19.5 5.25 19.5 C 5.664213562373095 19.5 6 19.835786437626904 6 20.25 Z M 18.75 20.25 C 18.75 20.664213562373096 18.414213562373096 21 18 21 C 17.585786437626904 21 17.25 20.664213562373096 17.25 20.25 C 17.25 19.835786437626904 17.585786437626904 19.5 18 19.5 C 18.414213562373096 19.5 18.75 19.835786437626904 18.75 20.25 Z" stroke-linecap="round" />
</g>
<g transform="matrix(NaN NaN NaN NaN 0 0)"  >
<g style=""   >
</g>
</g>
<g transform="matrix(NaN NaN NaN NaN 0 0)"  >
<g style=""   >
</g>
</g>
</svg>